<svg width="20" height="20" viewBox="0 0 20 20" version="1.1" xmlns="http://www.w3.org/2000/svg" xmlns:xlink="http://www.w3.org/1999/xlink">
<title>img_divider</title>
<desc>Created using Figma</desc>
<g id="Canvas" transform="translate(3448 -3274)">
<g id="img_divider">
<use xlink:href="#path0_fill" transform="translate(-3448 3274)" fill="#636363"/>
</g>
</g>
<defs>
<path id="path0_fill" fill-rule="evenodd" d="M 11.3337 0.588135C 12.1179 1.37207 12.1179 2.64355 11.3337 3.42749C 10.5498 4.21167 9.27832 4.21167 8.49438 3.42749C 7.71021 2.64355 7.71021 1.37207 8.49438 0.588135C 9.27832 -0.196045 10.5498 -0.196045 11.3337 0.588135ZM 7.38062 7.38062C 8.16479 6.59668 8.16479 5.3252 7.38062 4.54126C 6.59668 3.75708 5.3252 3.75708 4.54126 4.54126C 3.75708 5.3252 3.75708 6.59668 4.54126 7.38062C 5.3252 8.16504 6.59668 8.16504 7.38062 7.38062ZM 0.588135 8.49438C 1.37231 7.71021 2.64355 7.71021 3.42773 8.49438C 4.21191 9.27856 4.21191 10.5498 3.42773 11.334C 2.64355 12.1182 1.37231 12.1182 0.588135 11.334C -0.196045 10.5498 -0.196045 9.27856 0.588135 8.49438ZM 7.38062 12.4473C 6.59668 11.6631 5.3252 11.6631 4.54126 12.4473C 3.75708 13.2314 3.75708 14.5027 4.54126 15.2869C 5.3252 16.071 6.59668 16.071 7.38062 15.2869C 8.16479 14.5027 8.16479 13.2314 7.38062 12.4473ZM 8.49438 16.4006C 7.71021 17.1846 7.71021 18.4561 8.49438 19.24C 9.27832 20.0242 10.5498 20.0242 11.3337 19.24C 12.1179 18.4561 12.1179 17.1846 11.3337 16.4006C 10.5498 15.6165 9.27832 15.6165 8.49438 16.4006ZM 12.4475 12.4473C 11.6633 13.2314 11.6633 14.5027 12.4475 15.2869C 13.2317 16.071 14.5029 16.071 15.2871 15.2869C 16.0713 14.5027 16.0713 13.2314 15.2871 12.4473C 14.5029 11.6631 13.2317 11.6631 12.4475 12.4473ZM 8.49438 11.334C 7.71021 10.5498 7.71021 9.27856 8.49438 8.49438C 9.27832 7.71021 10.5498 7.71021 11.3337 8.49438C 12.1179 9.27856 12.1179 10.5498 11.3337 11.334C 10.5498 12.1182 9.27832 12.1182 8.49438 11.334ZM 16.4006 8.49438C 17.1848 7.71021 18.4561 7.71021 19.2402 8.49438C 20.0244 9.27856 20.0244 10.5498 19.2402 11.334C 18.4561 12.1182 17.1848 12.1182 16.4006 11.334C 15.6165 10.5498 15.6165 9.27856 16.4006 8.49438ZM 12.4475 7.38062C 13.2317 8.16504 14.5029 8.16504 15.2871 7.38062C 16.0713 6.59668 16.0713 5.3252 15.2871 4.54126C 14.5029 3.75708 13.2317 3.75708 12.4475 4.54126C 11.6633 5.3252 11.6633 6.59668 12.4475 7.38062Z"/>
</defs>
</svg>
