<svg width="200" height="210" viewBox="0 0 200 210" version="1.1" xmlns="http://www.w3.org/2000/svg" xmlns:xlink="http://www.w3.org/1999/xlink">
<title>img_floating_circle</title>
<desc>Created using Figma</desc>
<g id="Canvas" transform="translate(2901 -149)">
<g id="img_floating_circle" filter="url(#filter0_d)">
<use xlink:href="#path0_fill" transform="translate(-2871 149)" fill="url(#paint0_linear)"/>
</g>
</g>
<defs>
<filter id="filter0_d" filterUnits="userSpaceOnUse" x="-2901" y="149" width="200" height="210" color-interpolation-filters="sRGB">
<feFlood flood-opacity="0" result="BackgroundImageFix"/>
<feColorMatrix in="SourceAlpha" type="matrix" values="0 0 0 0 0 0 0 0 0 0 0 0 0 0 0 0 0 0 255 0"/>
<feOffset dx="0" dy="40"/>
<feGaussianBlur stdDeviation="15"/>
<feColorMatrix type="matrix" values="0 0 0 0 0 0 0 0 0 0 0 0 0 0 0 0 0 0 0.1 0"/>
<feBlend mode="normal" in2="BackgroundImageFix" result="effect1_dropShadow"/>
<feBlend mode="normal" in="SourceGraphic" in2="effect1_dropShadow" result="shape"/>
</filter>
<linearGradient id="paint0_linear" x1="0" y1="0" x2="1" y2="0" gradientUnits="userSpaceOnUse" gradientTransform="matrix(88.806 123.284 -123.284 88.806 26.1153 -1.65269e-08)">
<stop offset="0" stop-color="#E8C5B6"/>
<stop offset="1" stop-color="#B0B6C0"/>
</linearGradient>
<path id="path0_fill" fill-rule="evenodd" d="M 140 70C 140 108.66 108.66 140 70 140C 31.3401 140 0 108.66 0 70C 0 31.3401 31.3401 0 70 0C 108.66 0 140 31.3401 140 70ZM 119.104 70C 119.104 97.1197 97.1196 119.104 70 119.104C 42.8804 119.104 20.8955 97.1197 20.8955 70C 20.8955 42.8803 42.8804 20.8955 70 20.8955C 97.1196 20.8955 119.104 42.8803 119.104 70Z"/>
</defs>
</svg>
