<svg width="100" height="100" viewBox="0 0 100 100" version="1.1" xmlns="http://www.w3.org/2000/svg" xmlns:xlink="http://www.w3.org/1999/xlink">
<title>graphic</title>
<desc>Created using Figma</desc>
<g id="Canvas" transform="translate(4068 -5024)">
<g id="graphic">
<g id="Mask">
<use xlink:href="#path0_fill" transform="translate(-4068 5024)" fill="#BFD4E8"/>
</g>
<g id="Object">
<mask id="mask0_outline" mask-type="alpha">
<g id="Mask">
<use xlink:href="#path0_fill" transform="translate(-4068 5024)" fill="#FFFFFF"/>
</g>
</mask>
<g id="Rectangle 33" mask="url(#mask0_outline)">
<use xlink:href="#path1_fill" transform="translate(-4097.2 5049)" fill="#A8C1F3"/>
</g>
<g id="Rectangle 33" mask="url(#mask0_outline)">
<use xlink:href="#path2_fill" transform="translate(-4018 5016.5)" fill="#F8E1D9"/>
</g>
</g>
<g id="3,146">
<use xlink:href="#path3_fill" transform="translate(-4040 5061)" fill="#31373B"/>
</g>
</g>
</g>
<defs>
<path id="path0_fill" fill-rule="evenodd" d="M 100 50C 100 77.6143 77.6143 100 50 100C 22.3857 100 0 77.6143 0 50C 0 22.3857 22.3857 0 50 0C 77.6143 0 100 22.3857 100 50ZM 90.0374 50C 90.0374 72.1123 72.1121 90.0376 50 90.0376C 27.8879 90.0376 9.96265 72.1123 9.96265 50C 9.96265 27.8882 27.8879 9.96289 50 9.96289C 72.1121 9.96289 90.0374 27.8882 90.0374 50Z"/>
<path id="path1_fill" fill-rule="evenodd" d="M 46.7025 11.6667L 143.333 11.6667L 87.5 133.333L 0 0L 46.7025 11.6667Z"/>
<path id="path2_fill" fill-rule="evenodd" d="M 0 0L 58.3333 0L 58.3333 58.3333L 0 58.3333L 0 0Z"/>
<path id="path3_fill" d="M 9.30664 16.7578C 9.30664 17.2331 9.21549 17.679 9.0332 18.0957C 8.85742 18.5124 8.61328 18.877 8.30078 19.1895C 7.98828 19.502 7.6237 19.7493 7.20703 19.9316C 6.79036 20.1074 6.3444 20.1953 5.86914 20.1953L 5.27344 20.1953C 4.79818 20.1953 4.34896 20.1074 3.92578 19.9316C 3.50911 19.7493 3.14453 19.502 2.83203 19.1895C 2.51953 18.877 2.27214 18.5124 2.08984 18.0957C 1.91406 17.679 1.82617 17.2331 1.82617 16.7578L 1.82617 16.3965L 3.08594 16.2012L 3.08594 16.7578C 3.08594 17.0703 3.14453 17.3633 3.26172 17.6367C 3.37891 17.9036 3.53841 18.1413 3.74023 18.3496C 3.94857 18.5514 4.1862 18.7109 4.45312 18.8281C 4.72656 18.9453 5.01953 19.0039 5.33203 19.0039L 5.81055 19.0039C 6.12305 19.0039 6.41276 18.9453 6.67969 18.8281C 6.95312 18.7109 7.19076 18.5514 7.39258 18.3496C 7.5944 18.1413 7.75391 17.9036 7.87109 17.6367C 7.98828 17.3633 8.04688 17.0703 8.04688 16.7578L 8.04688 15.5957C 8.04688 15.2832 7.98828 14.9935 7.87109 14.7266C 7.75391 14.4531 7.5944 14.2155 7.39258 14.0137C 7.19076 13.8118 6.95312 13.6523 6.67969 13.5352C 6.41276 13.418 6.12305 13.3594 5.81055 13.3594L 4.87305 13.3594L 4.87305 12.1582L 5.81055 12.1582C 6.12305 12.1582 6.41276 12.0996 6.67969 11.9824C 6.95312 11.8652 7.19076 11.7057 7.39258 11.5039C 7.5944 11.3021 7.75391 11.0677 7.87109 10.8008C 7.98828 10.5273 8.04688 10.2344 8.04688 9.92188L 8.04688 9.23828C 8.04688 8.92578 7.98828 8.63607 7.87109 8.36914C 7.75391 8.0957 7.5944 7.85807 7.39258 7.65625C 7.19076 7.45443 6.95312 7.29492 6.67969 7.17773C 6.41276 7.06055 6.12305 7.00195 5.81055 7.00195L 5.33203 7.00195C 5.01953 7.00195 4.72656 7.06055 4.45312 7.17773C 4.1862 7.29492 3.94857 7.45443 3.74023 7.65625C 3.53841 7.85807 3.37891 8.0957 3.26172 8.36914C 3.14453 8.63607 3.08594 8.92578 3.08594 9.23828L 3.08594 9.80469L 1.82617 9.59961L 1.82617 9.23828C 1.82617 8.76302 1.91406 8.31706 2.08984 7.90039C 2.27214 7.48372 2.51953 7.11914 2.83203 6.80664C 3.14453 6.49414 3.50911 6.25 3.92578 6.07422C 4.34896 5.89193 4.79818 5.80078 5.27344 5.80078L 5.86914 5.80078C 6.3444 5.80078 6.79036 5.89193 7.20703 6.07422C 7.6237 6.25 7.98828 6.49414 8.30078 6.80664C 8.61328 7.11914 8.85742 7.48372 9.0332 7.90039C 9.21549 8.31706 9.30664 8.76302 9.30664 9.23828L 9.30664 9.7168C 9.30664 10.0488 9.26107 10.3678 9.16992 10.6738C 9.08529 10.9733 8.96159 11.2533 8.79883 11.5137C 8.64258 11.7741 8.45378 12.0117 8.23242 12.2266C 8.01107 12.4349 7.76367 12.6139 7.49023 12.7637C 7.76367 12.9069 8.01107 13.0859 8.23242 13.3008C 8.45378 13.5091 8.64258 13.7435 8.79883 14.0039C 8.96159 14.2643 9.08529 14.5475 9.16992 14.8535C 9.26107 15.153 9.30664 15.4688 9.30664 15.8008L 9.30664 16.7578ZM 12.334 22.8027L 11.8262 22.8027L 11.8262 18.4961L 13.3301 18.4961L 12.334 22.8027ZM 15.8398 20L 15.8398 18.7988L 19.1797 18.7988L 19.1797 7.19727L 15.8398 8.60352L 15.8398 7.40234L 19.1797 5.99609L 20.4395 5.99609L 20.4395 18.7988L 23.7793 18.7988L 23.7793 20L 15.8398 20ZM 31.7773 17.5781L 31.7773 20L 30.5176 20L 30.5176 17.5781L 24.8926 17.5781L 24.8926 16.9824L 31.1133 5.99609L 31.7773 5.99609L 31.7773 16.377L 32.9785 16.377L 32.9785 17.5781L 31.7773 17.5781ZM 30.5176 9.44336L 26.6602 16.377L 30.5176 16.377L 30.5176 9.44336ZM 43.3594 16.7578C 43.3594 17.2331 43.2682 17.679 43.0859 18.0957C 42.9102 18.5124 42.666 18.877 42.3535 19.1895C 42.041 19.502 41.6764 19.7493 41.2598 19.9316C 40.8431 20.1074 40.3971 20.1953 39.9219 20.1953L 39.3164 20.1953C 38.8411 20.1953 38.3952 20.1074 37.9785 19.9316C 37.5618 19.7493 37.1973 19.502 36.8848 19.1895C 36.5723 18.877 36.3249 18.5124 36.1426 18.0957C 35.9668 17.679 35.8789 17.2331 35.8789 16.7578L 35.8789 9.23828C 35.8789 8.76302 35.9668 8.31706 36.1426 7.90039C 36.3249 7.48372 36.5723 7.11914 36.8848 6.80664C 37.1973 6.49414 37.5618 6.25 37.9785 6.07422C 38.3952 5.89193 38.8411 5.80078 39.3164 5.80078L 39.9219 5.80078C 40.3971 5.80078 40.8431 5.89193 41.2598 6.07422C 41.6764 6.25 42.041 6.49414 42.3535 6.80664C 42.666 7.11914 42.9102 7.48372 43.0859 7.90039C 43.2682 8.31706 43.3594 8.76302 43.3594 9.23828L 43.3594 9.59961L 42.0996 9.80469L 42.0996 9.23828C 42.0996 8.92578 42.041 8.63607 41.9238 8.36914C 41.8066 8.0957 41.6439 7.85807 41.4355 7.65625C 41.2337 7.45443 40.9961 7.29492 40.7227 7.17773C 40.4557 7.06055 40.166 7.00195 39.8535 7.00195L 39.375 7.00195C 39.0625 7.00195 38.7695 7.06055 38.4961 7.17773C 38.2292 7.29492 37.9948 7.45443 37.793 7.65625C 37.5911 7.85807 37.4316 8.0957 37.3145 8.36914C 37.1973 8.63607 37.1387 8.92578 37.1387 9.23828L 37.1387 12.7246C 37.4577 12.373 37.8385 12.0931 38.2812 11.8848C 38.7305 11.6699 39.209 11.5625 39.7168 11.5625L 39.9219 11.5625C 40.3971 11.5625 40.8431 11.6536 41.2598 11.8359C 41.6764 12.0117 42.041 12.2559 42.3535 12.5684C 42.666 12.8809 42.9102 13.2454 43.0859 13.6621C 43.2682 14.0788 43.3594 14.5247 43.3594 15L 43.3594 16.7578ZM 42.0996 15C 42.0996 14.6875 42.041 14.3978 41.9238 14.1309C 41.8066 13.8574 41.6439 13.6198 41.4355 13.418C 41.2337 13.2161 40.9961 13.0566 40.7227 12.9395C 40.4557 12.8223 40.166 12.7637 39.8535 12.7637L 39.375 12.7637C 39.0625 12.7637 38.7695 12.8223 38.4961 12.9395C 38.2292 13.0566 37.9948 13.2161 37.793 13.418C 37.5911 13.6198 37.4316 13.8574 37.3145 14.1309C 37.1973 14.3978 37.1387 14.6875 37.1387 15L 37.1387 16.7578C 37.1387 17.0703 37.1973 17.3633 37.3145 17.6367C 37.4316 17.9036 37.5911 18.1413 37.793 18.3496C 37.9948 18.5514 38.2292 18.7109 38.4961 18.8281C 38.7695 18.9453 39.0625 19.0039 39.375 19.0039L 39.8535 19.0039C 40.166 19.0039 40.4557 18.9453 40.7227 18.8281C 40.9961 18.7109 41.2337 18.5514 41.4355 18.3496C 41.6439 18.1413 41.8066 17.9036 41.9238 17.6367C 42.041 17.3633 42.0996 17.0703 42.0996 16.7578L 42.0996 15Z"/>
</defs>
</svg>
