<?xml version="1.0" encoding="UTF-8"?><!DOCTYPE svg PUBLIC "-//W3C//DTD SVG 1.1//EN" "http://www.w3.org/Graphics/SVG/1.1/DTD/svg11.dtd"><svg xmlns="http://www.w3.org/2000/svg"><defs>
        <style>
            .cls-1{fill:#95e1d3;fill-rule:evenodd}
        </style>
    </defs><symbol id="icon-alarm" viewBox="0 0 32 30.5">
    
    <path id="alarm.svg" class="cls-1" d="M420.74 2319.5a15.727 15.727 0 0 0-8.243-8.24 5.868 5.868 0 0 1 8.243 8.24zm-.24 6.5a14.442 14.442 0 0 1-3.963 9.94l2.029 2.03a1.482 1.482 0 0 1-1.049 2.53 1.51 1.51 0 0 1-1.049-.43l-2.178-2.18a14.471 14.471 0 0 1-16.566.01l-2.163 2.16a1.5 1.5 0 1 1-2.122-2.12l2.012-2.01A14.495 14.495 0 1 1 420.5 2326zm-14.5-11.5a11.5 11.5 0 1 0 11.5 11.5 11.5 11.5 0 0 0-11.5-11.5zm6 13h-6a1.5 1.5 0 0 1-1.5-1.5v-8a1.5 1.5 0 0 1 3 0v6.5h4.5a1.5 1.5 0 0 1 0 3zm-20.713-7.79a5.994 5.994 0 0 1 8.419-8.42 16.016 16.016 0 0 0-8.419 8.42z" transform="translate(-390 -2310)"/>
</symbol></svg>